<?xml version="1.0" encoding="UTF-8" standalone="no"?>
<svg
   xmlns:dc="http://purl.org/dc/elements/1.1/"
   xmlns:cc="http://creativecommons.org/ns#"
   xmlns:rdf="http://www.w3.org/1999/02/22-rdf-syntax-ns#"
   xmlns:svg="http://www.w3.org/2000/svg"
   xmlns="http://www.w3.org/2000/svg"
   viewBox="0 0 815 261.25"
   height="261.25"
   width="815"
   xml:space="preserve"
   version="1.1"
   id="svg2"><metadata
     id="metadata8"><rdf:RDF><cc:Work
         rdf:about=""><dc:format>image/svg+xml</dc:format><dc:type
           rdf:resource="http://purl.org/dc/dcmitype/StillImage" /></cc:Work></rdf:RDF></metadata><defs
     id="defs6"><clipPath
       id="clipPath18"
       clipPathUnits="userSpaceOnUse"><path
         id="path20"
         d="M 0,0 652,0 652,209 0,209 0,0 Z" /></clipPath></defs><g
     transform="matrix(1.25,0,0,-1.25,0,261.25)"
     id="g10"><g
       id="g12" /><g
       id="g14"><g
         clip-path="url(#clipPath18)"
         id="g16"><path
           id="path22"
           style="fill:#ffffff;fill-opacity:1;fill-rule:nonzero;stroke:none"
           d="m -70,270 926,0 0,-689 -926,0 0,689 z" /><g
           transform="matrix(1,0,0,-1,-70,270)"
           id="g24"><path
             id="path26"
             style="fill:none;stroke:#000000;stroke-width:1;stroke-linecap:round;stroke-linejoin:round;stroke-miterlimit:10;stroke-dasharray:none;stroke-opacity:1"
             d="m 630,72 81,0 0,144 -81,0 0,-144 z" /></g><g
           transform="matrix(1,0,0,-1,600.5,126)"
           id="g28"><text
             id="text30"
             style="font-variant:normal;font-weight:normal;font-size:12px;font-family:'Helvetica Neue';-inkscape-font-specification:HelveticaNeue;writing-mode:lr-tb;fill:#000000;fill-opacity:1;fill-rule:nonzero;stroke:none"
             transform="translate(-18.672,-56)"><tspan
               id="tspan32"
               y="0"
               x="0 5.7839999 12.456 16.452 19.115999 25.788 32.675999">Turing-</tspan></text>
</g><g
           transform="matrix(1,0,0,-1,600.5,126)"
           id="g34"><text
             id="text36"
             style="font-variant:normal;font-weight:normal;font-size:12px;font-family:'Helvetica Neue';-inkscape-font-specification:HelveticaNeue;writing-mode:lr-tb;fill:#000000;fill-opacity:1;fill-rule:nonzero;stroke:none"
             transform="translate(-34.104,-42)"><tspan
               id="tspan38"
               y="0"
               x="0 3.78 10.224 16.667999 23.556 30.444 37.116001 39.779999 45.540001 51.984001 59.099998 61.764">recognizable</tspan></text>
</g><g
           transform="matrix(1,0,0,-1,-70,270)"
           id="g40"><path
             id="path42"
             style="fill:none;stroke:#000000;stroke-width:1;stroke-linecap:round;stroke-linejoin:round;stroke-miterlimit:10;stroke-dasharray:none;stroke-opacity:1"
             d="m 306,72 72,0 0,144 -72,0 0,-144 z" /></g><g
           transform="matrix(1,0,0,-1,272,126)"
           id="g44"><text
             id="text46"
             style="font-variant:normal;font-weight:normal;font-size:12px;font-family:'Helvetica Neue';-inkscape-font-specification:HelveticaNeue;writing-mode:lr-tb;fill:#000000;fill-opacity:1;fill-rule:nonzero;stroke:none"
             transform="translate(-3.888,-56)"><tspan
               id="tspan48"
               y="0"
               x="0">P</tspan></text>
</g><g
           transform="matrix(1,0,0,-1,-70,270)"
           id="g50"><path
             id="path52"
             style="fill:none;stroke:#000000;stroke-width:1;stroke-linecap:round;stroke-linejoin:round;stroke-miterlimit:10;stroke-dasharray:none;stroke-opacity:1"
             d="m 522,72 72,0 0,144 -72,0 0,-144 z" /></g><g
           transform="matrix(1,0,0,-1,488,126)"
           id="g54"><text
             id="text56"
             style="font-variant:normal;font-weight:normal;font-size:12px;font-family:'Helvetica Neue';-inkscape-font-specification:HelveticaNeue;writing-mode:lr-tb;fill:#000000;fill-opacity:1;fill-rule:nonzero;stroke:none"
             transform="translate(-18.672,-56)"><tspan
               id="tspan58"
               y="0"
               x="0 5.7839999 12.456 16.452 19.115999 25.788 32.675999">Turing-</tspan></text>
</g><g
           transform="matrix(1,0,0,-1,488,126)"
           id="g60"><text
             id="text62"
             style="font-variant:normal;font-weight:normal;font-size:12px;font-family:'Helvetica Neue';-inkscape-font-specification:HelveticaNeue;writing-mode:lr-tb;fill:#000000;fill-opacity:1;fill-rule:nonzero;stroke:none"
             transform="translate(-26.226,-42)"><tspan
               id="tspan64"
               y="0"
               x="0 7.1160002 13.56 20.004 22.667999 29.784 36.228001 43.344002 46.007999">decidable</tspan></text>
</g><g
           transform="matrix(1,0,0,-1,-70,270)"
           id="g66"><path
             id="path68"
             style="fill:none;stroke:#000000;stroke-width:1;stroke-linecap:round;stroke-linejoin:round;stroke-miterlimit:10;stroke-dasharray:none;stroke-opacity:1"
             d="m 189,72 81,0 0,144 -81,0 0,-144 z" /></g><g
           transform="matrix(1,0,0,-1,159.5,126)"
           id="g70"><text
             id="text72"
             style="font-variant:normal;font-weight:normal;font-size:12px;font-family:'Helvetica Neue';-inkscape-font-specification:HelveticaNeue;writing-mode:lr-tb;fill:#000000;fill-opacity:1;fill-rule:nonzero;stroke:none"
             transform="translate(-32.556,-56)"><tspan
               id="tspan74"
               y="0"
               x="0 6.4439998 13.332 20.004 23.784 30.228001 36.444 40.223999 44.891998 48.444 52.223999 58.667999">context-free</tspan></text>
</g><g
           transform="matrix(1,0,0,-1,-70,270)"
           id="g76"><path
             id="path78"
             style="fill:none;stroke:#000000;stroke-width:1;stroke-linecap:round;stroke-linejoin:round;stroke-miterlimit:10;stroke-dasharray:none;stroke-opacity:1"
             d="m 81,72 72,0 0,144 -72,0 0,-144 z" /></g><g
           transform="matrix(1,0,0,-1,47,126)"
           id="g80"><text
             id="text82"
             style="font-variant:normal;font-weight:normal;font-size:12px;font-family:'Helvetica Neue';-inkscape-font-specification:HelveticaNeue;writing-mode:lr-tb;fill:#000000;fill-opacity:1;fill-rule:nonzero;stroke:none"
             transform="translate(-18.444,-56)"><tspan
               id="tspan84"
               y="0"
               x="0 3.78 10.224 17.112 23.784 26.448 32.891998">regular</tspan></text>
</g><g
           transform="matrix(1,0,0,-1,47,156.5)"
           id="g86"><text
             id="text88"
             style="font-variant:normal;font-weight:normal;font-size:12px;font-family:'Helvetica Neue';-inkscape-font-specification:HelveticaNeue;writing-mode:lr-tb;fill:#000000;fill-opacity:1;fill-rule:nonzero;stroke:none"
             transform="translate(-11.226,4)"><tspan
               id="tspan90"
               y="0"
               x="0 8.448 14.676">DFA</tspan></text>
</g><g
           transform="matrix(1,0,0,-1,47,115.3125)"
           id="g92"><text
             id="text94"
             style="font-variant:normal;font-weight:normal;font-size:12px;font-family:'Helvetica Neue';-inkscape-font-specification:HelveticaNeue;writing-mode:lr-tb;fill:#000000;fill-opacity:1;fill-rule:nonzero;stroke:none"
             transform="translate(-11.334,4)"><tspan
               id="tspan96"
               y="0"
               x="0 8.6639996 14.892">NFA</tspan></text>
</g><g
           transform="matrix(1,0,0,-1,47,74.125)"
           id="g98"><text
             id="text100"
             style="font-variant:normal;font-weight:normal;font-size:12px;font-family:'Helvetica Neue';-inkscape-font-specification:HelveticaNeue;writing-mode:lr-tb;fill:#000000;fill-opacity:1;fill-rule:nonzero;stroke:none"
             transform="translate(-21.444,4)"><tspan
               id="tspan102"
               y="0"
               x="0 3.78 10.224 17.112 23.556 29.771999 36.888">regexps</tspan></text>
</g><g
           transform="matrix(1,0,0,-1,159.5,141.3125)"
           id="g104"><text
             id="text106"
             style="font-variant:normal;font-weight:normal;font-size:12px;font-family:'Helvetica Neue';-inkscape-font-specification:HelveticaNeue;writing-mode:lr-tb;fill:#000000;fill-opacity:1;fill-rule:nonzero;stroke:none"
             transform="translate(-19.44,4)"><tspan
               id="tspan108"
               y="0"
               x="0 3.108 11.772 14.88 22.656 31.104">(N)PDA</tspan></text>
</g><g
           transform="matrix(1,0,0,-1,159.5,77)"
           id="g110"><text
             id="text112"
             style="font-variant:normal;font-weight:normal;font-size:12px;font-family:'Helvetica Neue';-inkscape-font-specification:HelveticaNeue;writing-mode:lr-tb;fill:#000000;fill-opacity:1;fill-rule:nonzero;stroke:none"
             transform="translate(-12.33,4)"><tspan
               id="tspan114"
               y="0"
               x="0 8.6639996 15.552">CFG</tspan></text>
</g><g
           transform="matrix(1,0,0,-1,488,141.3125)"
           id="g116"><text
             id="text118"
             style="font-variant:normal;font-weight:normal;font-size:12px;font-family:'Helvetica Neue';-inkscape-font-specification:HelveticaNeue;writing-mode:lr-tb;fill:#000000;fill-opacity:1;fill-rule:nonzero;stroke:none"
             transform="translate(-20.112,-3)"><tspan
               id="tspan120"
               y="0"
               x="0 7.1160002 13.56 20.004 22.667999 29.784 36.228001 40.223999">decider </tspan></text>
</g><g
           transform="matrix(1,0,0,-1,488,141.3125)"
           id="g122"><text
             id="text124"
             style="font-variant:normal;font-weight:normal;font-size:12px;font-family:'Helvetica Neue';-inkscape-font-specification:HelveticaNeue;writing-mode:lr-tb;fill:#000000;fill-opacity:1;fill-rule:nonzero;stroke:none"
             transform="translate(-16.002,11)"><tspan
               id="tspan126"
               y="0"
               x="0 3.108 11.556 14.664 21.552">(D)TM</tspan></text>
</g><g
           transform="matrix(1,0,0,-1,488,77)"
           id="g128"><text
             id="text130"
             style="font-variant:normal;font-weight:normal;font-size:12px;font-family:'Helvetica Neue';-inkscape-font-specification:HelveticaNeue;writing-mode:lr-tb;fill:#000000;fill-opacity:1;fill-rule:nonzero;stroke:none"
             transform="translate(-20.112,-3)"><tspan
               id="tspan132"
               y="0"
               x="0 7.1160002 13.56 20.004 22.667999 29.784 36.228001 40.223999">decider </tspan></text>
</g><g
           transform="matrix(1,0,0,-1,488,77)"
           id="g134"><text
             id="text136"
             style="font-variant:normal;font-weight:normal;font-size:12px;font-family:'Helvetica Neue';-inkscape-font-specification:HelveticaNeue;writing-mode:lr-tb;fill:#000000;fill-opacity:1;fill-rule:nonzero;stroke:none"
             transform="translate(-13.002,11)"><tspan
               id="tspan138"
               y="0"
               x="0 8.6639996 15.552">NTM</tspan></text>
</g><g
           transform="matrix(1,0,0,-1,600.5,141.3125)"
           id="g140"><text
             id="text142"
             style="font-variant:normal;font-weight:normal;font-size:12px;font-family:'Helvetica Neue';-inkscape-font-specification:HelveticaNeue;writing-mode:lr-tb;fill:#000000;fill-opacity:1;fill-rule:nonzero;stroke:none"
             transform="translate(-16.002,4)"><tspan
               id="tspan144"
               y="0"
               x="0 3.108 11.556 14.664 21.552">(D)TM</tspan></text>
</g><g
           transform="matrix(1,0,0,-1,600.5,77)"
           id="g146"><text
             id="text148"
             style="font-variant:normal;font-weight:normal;font-size:12px;font-family:'Helvetica Neue';-inkscape-font-specification:HelveticaNeue;writing-mode:lr-tb;fill:#000000;fill-opacity:1;fill-rule:nonzero;stroke:none"
             transform="translate(-13.002,4)"><tspan
               id="tspan150"
               y="0"
               x="0 8.6639996 15.552">NTM</tspan></text>
</g><g
           transform="matrix(1,0,0,-1,-70,270)"
           id="g152"><path
             id="path154"
             style="fill:none;stroke:#000000;stroke-width:1;stroke-linecap:round;stroke-linejoin:round;stroke-miterlimit:10;stroke-dasharray:none;stroke-opacity:1"
             d="m 414,72 72,0 0,144 -72,0 0,-144 z" /></g><g
           transform="matrix(1,0,0,-1,380,126)"
           id="g156"><text
             id="text158"
             style="font-variant:normal;font-weight:normal;font-size:12px;font-family:'Helvetica Neue';-inkscape-font-specification:HelveticaNeue;writing-mode:lr-tb;fill:#000000;fill-opacity:1;fill-rule:nonzero;stroke:none"
             transform="translate(-8.22,-56)"><tspan
               id="tspan160"
               y="0"
               x="0 8.6639996">NP</tspan></text>
</g><g
           transform="matrix(1,0,0,-1,271.25,130)"
           id="g162"><text
             id="text164"
             style="font-variant:normal;font-weight:normal;font-size:12px;font-family:'Helvetica Neue';-inkscape-font-specification:HelveticaNeue;writing-mode:lr-tb;fill:#000000;fill-opacity:1;fill-rule:nonzero;stroke:none"
             transform="translate(-22.896,-3)"><tspan
               id="tspan166"
               y="0"
               x="0 7.1160002 14.004 16.667999 22.667999 26.448 29.112 39.348">polytime</tspan></text>
</g><g
           transform="matrix(1,0,0,-1,271.25,130)"
           id="g168"><text
             id="text170"
             style="font-variant:normal;font-weight:normal;font-size:12px;font-family:'Helvetica Neue';-inkscape-font-specification:HelveticaNeue;writing-mode:lr-tb;fill:#000000;fill-opacity:1;fill-rule:nonzero;stroke:none"
             transform="translate(-16.002,11)"><tspan
               id="tspan172"
               y="0"
               x="0 3.108 11.556 14.664 21.552">(D)TM</tspan></text>
</g><g
           transform="matrix(1,0,0,-1,380,130)"
           id="g174"><text
             id="text176"
             style="font-variant:normal;font-weight:normal;font-size:12px;font-family:'Helvetica Neue';-inkscape-font-specification:HelveticaNeue;writing-mode:lr-tb;fill:#000000;fill-opacity:1;fill-rule:nonzero;stroke:none"
             transform="translate(-22.896,-3)"><tspan
               id="tspan178"
               y="0"
               x="0 7.1160002 14.004 16.667999 22.667999 26.448 29.112 39.348">polytime</tspan></text>
</g><g
           transform="matrix(1,0,0,-1,380,130)"
           id="g180"><text
             id="text182"
             style="font-variant:normal;font-weight:normal;font-size:12px;font-family:'Helvetica Neue';-inkscape-font-specification:HelveticaNeue;writing-mode:lr-tb;fill:#000000;fill-opacity:1;fill-rule:nonzero;stroke:none"
             transform="translate(-13.002,11)"><tspan
               id="tspan184"
               y="0"
               x="0 8.6639996 15.552">NTM</tspan></text>
</g><g
           transform="matrix(1,0,0,-1,101,126)"
           id="g186"><text
             id="text188"
             style="font-variant:normal;font-weight:normal;font-size:36px;font-family:'Apple Symbols';-inkscape-font-specification:AppleSymbols;writing-mode:lr-tb;fill:#000000;fill-opacity:1;fill-rule:nonzero;stroke:none"
             transform="translate(-10.11621,6)"><tspan
               id="tspan190"
               y="0"
               x="0">⊊</tspan></text>
</g><g
           transform="matrix(1,0,0,-1,218,126)"
           id="g192"><text
             id="text194"
             style="font-variant:normal;font-weight:normal;font-size:36px;font-family:'Apple Symbols';-inkscape-font-specification:AppleSymbols;writing-mode:lr-tb;fill:#000000;fill-opacity:1;fill-rule:nonzero;stroke:none"
             transform="translate(-10.11621,6)"><tspan
               id="tspan196"
               y="0"
               x="0">⊊</tspan></text>
</g><g
           transform="matrix(1,0,0,-1,434,126)"
           id="g198"><text
             id="text200"
             style="font-variant:normal;font-weight:normal;font-size:36px;font-family:'Apple Symbols';-inkscape-font-specification:AppleSymbols;writing-mode:lr-tb;fill:#000000;fill-opacity:1;fill-rule:nonzero;stroke:none"
             transform="translate(-10.11621,6)"><tspan
               id="tspan202"
               y="0"
               x="0">⊊</tspan></text>
</g><g
           transform="matrix(1,0,0,-1,542,126)"
           id="g204"><text
             id="text206"
             style="font-variant:normal;font-weight:normal;font-size:36px;font-family:'Apple Symbols';-inkscape-font-specification:AppleSymbols;writing-mode:lr-tb;fill:#000000;fill-opacity:1;fill-rule:nonzero;stroke:none"
             transform="translate(-10.11621,6)"><tspan
               id="tspan208"
               y="0"
               x="0">⊊</tspan></text>
</g><g
           transform="matrix(1,0,0,-1,326,126)"
           id="g210"><text
             id="text212"
             style="font-variant:normal;font-weight:normal;font-size:36px;font-family:'Apple Symbols';-inkscape-font-specification:AppleSymbols;writing-mode:lr-tb;fill:#000000;fill-opacity:1;fill-rule:nonzero;stroke:none"
             transform="translate(-11.93555,6)"><tspan
               id="tspan214"
               y="0"
               x="0">⊆</tspan></text>
</g><g
           transform="matrix(1,0,0,-1,56.375,24.375)"
           id="g216"><text
             id="text218"
             style="font-variant:normal;font-weight:normal;font-size:16px;font-family:'Helvetica Neue';-inkscape-font-specification:HelveticaNeue;writing-mode:lr-tb;fill:#000000;fill-opacity:1;fill-rule:nonzero;stroke:none"
             transform="translate(-18.816,6)"><tspan
               id="tspan220"
               y="0"
               x="0 11.552 20.448 24 29.040001 33.487999">Unit I</tspan></text>
</g><g
           transform="matrix(1,0,0,-1,326.375,24.375)"
           id="g222"><text
             id="text224"
             style="font-variant:normal;font-weight:normal;font-size:16px;font-family:'Helvetica Neue';-inkscape-font-specification:HelveticaNeue;writing-mode:lr-tb;fill:#000000;fill-opacity:1;fill-rule:nonzero;stroke:none"
             transform="translate(-23.704,6)"><tspan
               id="tspan226"
               y="0"
               x="0 11.552 20.448 24 29.040001 33.487999 37.632">Unit IV</tspan></text>
</g><g
           transform="matrix(1,0,0,-1,542.375,24.375)"
           id="g228"><text
             id="text230"
             style="font-variant:normal;font-weight:normal;font-size:16px;font-family:'Helvetica Neue';-inkscape-font-specification:HelveticaNeue;writing-mode:lr-tb;fill:#000000;fill-opacity:1;fill-rule:nonzero;stroke:none"
             transform="translate(-22.96,6)"><tspan
               id="tspan232"
               y="0"
               x="0 11.552 20.448 24 29.040001 33.487999 37.632 41.776001">Unit III</tspan></text>
</g><g
           transform="matrix(1,0,0,-1,164.375,24.375)"
           id="g234"><text
             id="text236"
             style="font-variant:normal;font-weight:normal;font-size:16px;font-family:'Helvetica Neue';-inkscape-font-specification:HelveticaNeue;writing-mode:lr-tb;fill:#000000;fill-opacity:1;fill-rule:nonzero;stroke:none"
             transform="translate(-20.888,6)"><tspan
               id="tspan238"
               y="0"
               x="0 11.552 20.448 24 29.040001 33.487999 37.632">Unit II</tspan></text>
</g><g
           transform="matrix(0,-1,-1,0,47,135.9062)"
           id="g240"><text
             id="text242"
             style="font-variant:normal;font-weight:normal;font-size:36px;font-family:'Apple Symbols';-inkscape-font-specification:AppleSymbols;writing-mode:lr-tb;fill:#000000;fill-opacity:1;fill-rule:nonzero;stroke:none"
             transform="translate(-8.516602,6)"><tspan
               id="tspan244"
               y="0"
               x="0">=</tspan></text>
</g><g
           transform="matrix(0,-1,-1,0,47,94.71875)"
           id="g246"><text
             id="text248"
             style="font-variant:normal;font-weight:normal;font-size:36px;font-family:'Apple Symbols';-inkscape-font-specification:AppleSymbols;writing-mode:lr-tb;fill:#000000;fill-opacity:1;fill-rule:nonzero;stroke:none"
             transform="translate(-8.516602,6)"><tspan
               id="tspan250"
               y="0"
               x="0">=</tspan></text>
</g><g
           transform="matrix(0,-1,-1,0,159.5,109.1562)"
           id="g252"><text
             id="text254"
             style="font-variant:normal;font-weight:normal;font-size:36px;font-family:'Apple Symbols';-inkscape-font-specification:AppleSymbols;writing-mode:lr-tb;fill:#000000;fill-opacity:1;fill-rule:nonzero;stroke:none"
             transform="translate(-8.516602,6)"><tspan
               id="tspan256"
               y="0"
               x="0">=</tspan></text>
</g><g
           transform="matrix(0,-1,-1,0,488,109.1562)"
           id="g258"><text
             id="text260"
             style="font-variant:normal;font-weight:normal;font-size:36px;font-family:'Apple Symbols';-inkscape-font-specification:AppleSymbols;writing-mode:lr-tb;fill:#000000;fill-opacity:1;fill-rule:nonzero;stroke:none"
             transform="translate(-8.516602,6)"><tspan
               id="tspan262"
               y="0"
               x="0">=</tspan></text>
</g><g
           transform="matrix(0,-1,-1,0,600.5,109.1562)"
           id="g264"><text
             id="text266"
             style="font-variant:normal;font-weight:normal;font-size:36px;font-family:'Apple Symbols';-inkscape-font-specification:AppleSymbols;writing-mode:lr-tb;fill:#000000;fill-opacity:1;fill-rule:nonzero;stroke:none"
             transform="translate(-8.516602,6)"><tspan
               id="tspan268"
               y="0"
               x="0">=</tspan></text>
</g></g></g></g></svg>